<svg width="50" height="50" viewBox="0 0 50 50" fill="none" xmlns="http://www.w3.org/2000/svg">
<g clip-path="url(#clip0)">
<path d="M47.5 28.3334C46.1193 28.3334 45 29.4527 45 30.8334V33.3334H18.0408C18.2309 32.944 18.3309 32.5168 18.3333 32.0834C18.3333 30.4726 17.0275 29.1667 15.4167 29.1667H9.58334C7.97251 29.1667 6.66667 30.4726 6.66667 32.0834C6.66911 32.5168 6.76908 32.944 6.95917 33.3334H5V24.1667C5 22.786 3.88072 21.6667 2.5 21.6667C1.11929 21.6667 4.54025e-06 22.786 4.54025e-06 24.1667V47.5001C-0.00229996 48.7163 0.872911 49.7568 2.07152 49.9629C3.27013 50.169 4.44263 49.4805 4.84667 48.3334H45.1533C45.5574 49.4805 46.7299 50.169 47.9285 49.9629C49.1271 49.7568 50.0023 48.7163 50 47.5001V30.8334C50 29.4527 48.8807 28.3334 47.5 28.3334ZM45 42.5001H15.8333C15.3731 42.5001 15 42.127 15 41.6667V35.0001H45V42.5001ZM8.33334 32.0834C8.33334 31.3931 8.89298 30.8334 9.58334 30.8334H15.4167C16.107 30.8334 16.6667 31.3931 16.6667 32.0834C16.6667 32.7738 16.107 33.3334 15.4167 33.3334H9.58334C8.89298 33.3334 8.33334 32.7738 8.33334 32.0834ZM2.5 48.3334C2.03977 48.3334 1.66667 47.9603 1.66667 47.5001V24.1667C1.66667 23.7065 2.03977 23.3334 2.5 23.3334C2.96024 23.3334 3.33334 23.7065 3.33334 24.1667V47.5001C3.33334 47.9603 2.96024 48.3334 2.5 48.3334ZM5 35.0001H13.3333V41.6667C13.3333 43.0475 14.4526 44.1667 15.8333 44.1667H45V46.6667H5V35.0001ZM48.3333 47.5001C48.3333 47.9603 47.9602 48.3334 47.5 48.3334C47.0398 48.3334 46.6667 47.9603 46.6667 47.5001V30.8334C46.6667 30.3732 47.0398 30.0001 47.5 30.0001C47.9602 30.0001 48.3333 30.3732 48.3333 30.8334V47.5001Z" fill="white"/>
<path d="M25.0001 26.6667C32.3639 26.6667 38.3334 20.6971 38.3334 13.3333C38.3334 5.96954 32.3639 0 25.0001 0C17.6363 0 11.6667 5.96954 11.6667 13.3333C11.6755 20.6935 17.6399 26.6579 25.0001 26.6667ZM25.0001 1.66667C31.4434 1.66667 36.6667 6.89001 36.6667 13.3333C36.6667 19.7767 31.4434 25 25.0001 25C18.5568 25 13.3334 19.7767 13.3334 13.3333C13.3403 6.89287 18.5596 1.67356 25.0001 1.66667Z" fill="white"/>
<path d="M19.1667 16.6666H21.6667V19.1666C21.6667 20.0871 22.4129 20.8333 23.3333 20.8333H26.6667C27.5871 20.8333 28.3333 20.0871 28.3333 19.1666V16.6666H30.8333C31.7538 16.6666 32.5 15.9204 32.5 14.9999V11.6666C32.5 10.7461 31.7538 9.99992 30.8333 9.99992H28.3333V7.49992C28.3333 6.57944 27.5871 5.83325 26.6667 5.83325H23.3333C22.4129 5.83325 21.6667 6.57944 21.6667 7.49992V9.99992H19.1667C18.2462 9.99992 17.5 10.7461 17.5 11.6666V14.9999C17.5 15.9204 18.2462 16.6666 19.1667 16.6666ZM19.1667 11.6666H21.6667C22.5871 11.6666 23.3333 10.9204 23.3333 9.99992V7.49992H26.6667V9.99992C26.6667 10.9204 27.4129 11.6666 28.3333 11.6666H30.8333V14.9999H28.3333C27.4129 14.9999 26.6667 15.7461 26.6667 16.6666V19.1666H23.3333V16.6666C23.3333 15.7461 22.5871 14.9999 21.6667 14.9999H19.1667V11.6666Z" fill="white"/>
<path d="M17.4998 38.3332H35.8332C36.2934 38.3332 36.6665 37.9601 36.6665 37.4998C36.6665 37.0396 36.2934 36.6665 35.8332 36.6665H17.4998C17.0396 36.6665 16.6665 37.0396 16.6665 37.4998C16.6665 37.9601 17.0396 38.3332 17.4998 38.3332Z" fill="white"/>
<path d="M39.1668 38.3332C39.6271 38.3332 40.0002 37.9601 40.0002 37.4998C40.0002 37.0396 39.6271 36.6665 39.1668 36.6665C38.7066 36.6665 38.3335 37.0396 38.3335 37.4998C38.3335 37.9601 38.7066 38.3332 39.1668 38.3332Z" fill="white"/>
</g>
<defs>
<clipPath id="clip0">
<rect width="50" height="50" fill="white"/>
</clipPath>
</defs>
</svg>
