<svg width="125" height="140" viewBox="0 0 125 140" fill="none" xmlns="http://www.w3.org/2000/svg">
<path d="M124.817 46.3551L124.733 45.8295C124.718 45.7483 124.71 45.6671 124.695 45.5881L115.929 21.8759V10.2102H8.92627V21.8761L0.305176 45.5862C0.286133 45.6802 0.274658 45.7743 0.259277 45.8659L0.179199 46.3551C0.0610352 47.2033 0 48.0728 0 48.9593C0 55.2998 3.15869 60.8112 7.8125 63.6287V129.79H117.188V63.6287C121.838 60.8109 125 55.2995 125 48.9593C125 48.0728 124.935 47.2033 124.817 46.3551ZM118.931 45.2102H99.7964L97.4961 27.8918H112.633L118.931 45.2102ZM14.1372 16.0421H110.721V21.8761H14.1372V16.0421ZM95.3064 51.0421L95.5886 53.159L94.0476 55.4554C92.2014 58.2111 89.3784 59.7918 86.3076 59.7918C83.2368 59.7918 80.4138 58.2111 78.5676 55.4554L76.9958 53.1098L76.9043 51.0421H95.3064ZM76.6487 45.2102L75.8896 27.8918H92.228L94.5322 45.2102H76.6487ZM71.6897 51.0418L71.7812 53.1568L70.2363 55.4554C68.3901 58.2111 65.5671 59.7918 62.5 59.7918C59.4253 59.7918 56.6062 58.2111 54.7561 55.4554L53.1768 53.0948L53.2683 51.0418H71.6897ZM53.5317 45.2102L54.3137 27.8918H70.6787L71.4341 45.2102H53.5317ZM30.4946 45.2102L32.7681 27.8918H49.1025L48.3167 45.2102H30.4946ZM48.0498 51.0421L47.9543 53.1804L46.4285 55.4554C44.5784 58.2111 41.7593 59.7918 38.6885 59.7918C35.6177 59.7918 32.7986 58.2111 30.9485 55.4554L29.4456 53.2145L29.7317 51.0421H48.0498ZM12.3635 27.8918H27.5042L25.2307 45.2102H6.06567L12.3635 27.8918ZM5.38623 51.0421H24.4673L24.0591 53.3086L22.6208 55.4556C20.7708 58.2113 17.9517 59.7921 14.877 59.7921C10.1814 59.7921 6.2561 56.0238 5.38623 51.0421ZM101.562 123.962H80.7266V103.54H83.332C84.7703 103.54 85.9375 102.237 85.9375 100.626C85.9375 99.0156 84.7703 97.7124 83.332 97.7124H80.7266V77.2899H101.562V123.962ZM111.977 123.962H111.977H106.77V71.4624H75.5195V123.962H13.0195V65.496C13.626 65.5813 14.2517 65.6264 14.8772 65.6264C19.7449 65.6264 24.0706 63.0074 26.783 58.9592C29.499 63.0074 33.821 65.6264 38.6887 65.6264C43.5564 65.6264 47.8784 63.0074 50.5945 58.9592C53.3066 63.0074 57.6326 65.6264 62.5002 65.6264C67.3679 65.6264 71.686 63.0074 74.4021 58.9592C77.1182 63.0074 81.4402 65.6264 86.3079 65.6264C91.1755 65.6264 95.4976 63.0074 98.2136 58.9592C100.93 63.0074 105.248 65.6264 110.115 65.6264C110.749 65.6264 111.367 65.5816 111.977 65.496V123.962ZM110.115 59.7921C107.048 59.7921 104.225 58.2113 102.379 55.4556L100.864 53.2041L100.571 51.0424H119.606C118.736 56.0238 114.815 59.7921 110.115 59.7921Z" fill="#282732"/>
<path d="M18.2266 71.4623V112.29H70.3125V71.4623H18.2266ZM65.1016 106.462H23.4375V77.2898H65.1016V106.462Z" fill="#282732"/>
<path d="M59.8755 91.8761C59.1545 91.8761 58.5022 92.2009 58.033 92.7306L52.8259 98.5668C52.3528 99.0924 52.063 99.823 52.063 100.626C52.063 102.237 53.2302 103.54 54.6646 103.54C55.3855 103.54 56.0378 103.215 56.5071 102.685L61.7141 96.8579C62.1873 96.3279 62.4771 95.5976 62.4771 94.7901C62.4771 93.1834 61.3137 91.8761 59.8755 91.8761Z" fill="#282732"/>
<path d="M59.8755 80.2123C59.1545 80.2123 58.5022 80.5371 58.033 81.0668L42.408 98.5624C41.9387 99.0879 41.645 99.8227 41.645 100.626C41.645 102.237 42.8123 103.54 44.2505 103.54C44.9678 103.54 45.6199 103.215 46.0891 102.685L61.7141 85.1897C62.1873 84.6641 62.4771 83.9294 62.4771 83.126C62.4771 81.5152 61.3137 80.2123 59.8755 80.2123Z" fill="#282732"/>
</svg>
