<svg width="99" height="105" viewBox="0 0 99 105" fill="none" xmlns="http://www.w3.org/2000/svg">
<path d="M58.7812 16.4062H54.1406V11.4844C54.1406 11.0493 53.9777 10.632 53.6876 10.3243C53.3975 10.0166 53.004 9.84375 52.5938 9.84375H46.4062C45.996 9.84375 45.6025 10.0166 45.3124 10.3243C45.0223 10.632 44.8594 11.0493 44.8594 11.4844V16.4062H40.2188C39.8085 16.4062 39.415 16.5791 39.1249 16.8868C38.8348 17.1945 38.6719 17.6118 38.6719 18.0469V24.6094C38.6719 25.0445 38.8348 25.4618 39.1249 25.7695C39.415 26.0772 39.8085 26.25 40.2188 26.25H44.8594V31.1719C44.8594 31.607 45.0223 32.0243 45.3124 32.332C45.6025 32.6397 45.996 32.8125 46.4062 32.8125H52.5938C53.004 32.8125 53.3975 32.6397 53.6876 32.332C53.9777 32.0243 54.1406 31.607 54.1406 31.1719V26.25H58.7812C59.1915 26.25 59.585 26.0772 59.8751 25.7695C60.1652 25.4618 60.3281 25.0445 60.3281 24.6094V18.0469C60.3281 17.6118 60.1652 17.1945 59.8751 16.8868C59.585 16.5791 59.1915 16.4062 58.7812 16.4062ZM57.2344 22.9688H52.5938C52.1835 22.9688 51.79 23.1416 51.4999 23.4493C51.2098 23.757 51.0469 24.1743 51.0469 24.6094V29.5312H47.9531V24.6094C47.9531 24.1743 47.7902 23.757 47.5001 23.4493C47.21 23.1416 46.8165 22.9688 46.4062 22.9688H41.7656V19.6875H46.4062C46.8165 19.6875 47.21 19.5146 47.5001 19.207C47.7902 18.8993 47.9531 18.482 47.9531 18.0469V13.125H51.0469V18.0469C51.0469 18.482 51.2098 18.8993 51.4999 19.207C51.79 19.5146 52.1835 19.6875 52.5938 19.6875H57.2344V22.9688Z" fill="#FF0000"/>
<path d="M21.6562 101.719H77.3438C77.754 101.719 78.1475 101.546 78.4376 101.238C78.7277 100.931 78.8906 100.513 78.8906 100.078V58.8548C80.218 58.4892 81.3936 57.6671 82.2333 56.5172C83.0731 55.3673 83.5295 53.9545 83.5312 52.5V44.2969C83.5313 43.8995 83.3953 43.5156 83.1486 43.2165L72.3205 30.0915C72.1753 29.9155 71.9963 29.7745 71.7955 29.6779C71.5947 29.5812 71.3767 29.5312 71.1562 29.5312H66.5156V4.92188C66.5156 4.48675 66.3527 4.06945 66.0626 3.76178C65.7725 3.4541 65.379 3.28125 64.9688 3.28125H34.0312C33.621 3.28125 33.2275 3.4541 32.9374 3.76178C32.6473 4.06945 32.4844 4.48675 32.4844 4.92188V29.5312H29.3906C29.1875 29.5312 28.9863 29.5737 28.7987 29.6561C28.611 29.7386 28.4404 29.8594 28.2968 30.0117L15.9218 43.1367C15.7782 43.2891 15.6642 43.47 15.5865 43.669C15.5087 43.8681 15.4687 44.0814 15.4688 44.2969V52.5C15.4705 53.9545 15.9269 55.3673 16.7667 56.5172C17.6064 57.6671 18.782 58.4892 20.1094 58.8548V100.078C20.1094 100.513 20.2723 100.931 20.5624 101.238C20.8525 101.546 21.246 101.719 21.6562 101.719ZM63.4219 75.4688V98.4375H51.0469V75.4688H63.4219ZM32.4844 72.1875V68.9062H66.5156V72.1875H32.4844ZM47.9531 75.4688V98.4375H35.5781V75.4688H47.9531ZM66.5156 98.4375V75.4688H68.0625C68.4728 75.4688 68.8662 75.2959 69.1563 74.9882C69.4464 74.6805 69.6094 74.2632 69.6094 73.8281V67.2656C69.6094 66.8305 69.4464 66.4132 69.1563 66.1055C68.8662 65.7979 68.4728 65.625 68.0625 65.625H30.9375C30.5272 65.625 30.1338 65.7979 29.8437 66.1055C29.5536 66.4132 29.3906 66.8305 29.3906 67.2656V73.8281C29.3906 74.2632 29.5536 74.6805 29.8437 74.9882C30.1338 75.2959 30.5272 75.4688 30.9375 75.4688H32.4844V98.4375H23.2031V58.8548C24.4017 58.5242 25.4793 57.8202 26.2969 56.8337C26.8764 57.534 27.5901 58.095 28.3904 58.4793C29.1906 58.8637 30.059 59.0625 30.9375 59.0625C31.816 59.0625 32.6844 58.8637 33.4846 58.4793C34.2849 58.095 34.9986 57.534 35.5781 56.8337C36.1576 57.534 36.8714 58.095 37.6716 58.4793C38.4719 58.8637 39.3403 59.0625 40.2188 59.0625C41.0972 59.0625 41.9656 58.8637 42.7659 58.4793C43.5661 58.095 44.2799 57.534 44.8594 56.8337C45.4389 57.534 46.1526 58.095 46.9529 58.4793C47.7531 58.8637 48.6215 59.0625 49.5 59.0625C50.3785 59.0625 51.2469 58.8637 52.0471 58.4793C52.8474 58.095 53.5611 57.534 54.1406 56.8337C54.7201 57.534 55.4339 58.095 56.2341 58.4793C57.0344 58.8637 57.9028 59.0625 58.7812 59.0625C59.6597 59.0625 60.5281 58.8637 61.3284 58.4793C62.1286 58.095 62.8424 57.534 63.4219 56.8337C64.0014 57.534 64.7151 58.095 65.5154 58.4793C66.3156 58.8637 67.184 59.0625 68.0625 59.0625C68.941 59.0625 69.8094 58.8637 70.6096 58.4793C71.4099 58.095 72.1236 57.534 72.7031 56.8337C73.5207 57.8202 74.5983 58.5242 75.7969 58.8548V98.4375H66.5156ZM35.5781 6.5625H63.4219V36.0938H35.5781V6.5625ZM18.5625 52.5V44.9763L30.0314 32.8125H32.4844V37.7344C32.4844 38.1695 32.6473 38.5868 32.9374 38.8945C33.2275 39.2021 33.621 39.375 34.0312 39.375H64.9688C65.379 39.375 65.7725 39.2021 66.0626 38.8945C66.3527 38.5868 66.5156 38.1695 66.5156 37.7344V32.8125H70.4544L80.4375 44.9133V52.5C80.4375 53.3702 80.1116 54.2048 79.5314 54.8202C78.9512 55.4356 78.1643 55.7812 77.3438 55.7812C76.5232 55.7812 75.7363 55.4356 75.1561 54.8202C74.5759 54.2048 74.25 53.3702 74.25 52.5V44.2969H71.1562V52.5C71.1562 53.3702 70.8303 54.2048 70.2501 54.8202C69.6699 55.4356 68.883 55.7812 68.0625 55.7812C67.242 55.7812 66.4551 55.4356 65.8749 54.8202C65.2947 54.2048 64.9688 53.3702 64.9688 52.5V44.2969H61.875V52.5C61.875 53.3702 61.5491 54.2048 60.9689 54.8202C60.3887 55.4356 59.6018 55.7812 58.7812 55.7812C57.9607 55.7812 57.1738 55.4356 56.5936 54.8202C56.0134 54.2048 55.6875 53.3702 55.6875 52.5V44.2969H52.5938V52.5C52.5938 53.3702 52.2678 54.2048 51.6876 54.8202C51.1074 55.4356 50.3205 55.7812 49.5 55.7812C48.6795 55.7812 47.8926 55.4356 47.3124 54.8202C46.7322 54.2048 46.4062 53.3702 46.4062 52.5V44.2969H43.3125V52.5C43.3125 53.3702 42.9866 54.2048 42.4064 54.8202C41.8262 55.4356 41.0393 55.7812 40.2188 55.7812C39.3982 55.7812 38.6113 55.4356 38.0311 54.8202C37.4509 54.2048 37.125 53.3702 37.125 52.5V44.2969H34.0312V52.5C34.0312 53.3702 33.7053 54.2048 33.1251 54.8202C32.5449 55.4356 31.758 55.7812 30.9375 55.7812C30.117 55.7812 29.3301 55.4356 28.7499 54.8202C28.1697 54.2048 27.8438 53.3702 27.8438 52.5V44.2969H24.75V52.5C24.75 53.3702 24.4241 54.2048 23.8439 54.8202C23.2637 55.4356 22.4768 55.7812 21.6562 55.7812C20.8357 55.7812 20.0488 55.4356 19.4686 54.8202C18.8884 54.2048 18.5625 53.3702 18.5625 52.5Z" fill="#282732"/>
<path d="M56.127 78.2678L58.3142 75.948L61.4075 79.2287L59.2202 81.5485L56.127 78.2678Z" fill="#282732"/>
<path d="M51.4858 83.1887L53.6731 80.8689L59.8597 87.4304L57.6724 89.7502L51.4858 83.1887Z" fill="#282732"/>
<path d="M40.6597 78.266L42.847 75.9461L45.9402 79.2268L43.7529 81.5467L40.6597 78.266Z" fill="#282732"/>
<path d="M36.019 83.1871L38.2063 80.8673L44.3929 87.4288L42.2056 89.7487L36.019 83.1871Z" fill="#282732"/>
</svg>
